<svg width="25" height="24" viewBox="0 0 25 24" fill="none" xmlns="http://www.w3.org/2000/svg">
<rect x="0.833344" width="24" height="24" rx="12" fill="black"/>
<path d="M18.0563 13.9801C17.8807 13.8418 16.3302 12.1345 15.4523 11.3387C15.4485 11.335 15.4485 11.335 15.4485 11.3313V7.65504C15.4485 6.74346 14.7051 6 13.7935 6H8.37257C7.5245 6 6.83334 6.69489 6.83334 7.53923V16.1619C6.83334 17.0735 7.57681 17.8169 8.48839 17.8169H10.065H10.4647C10.532 17.8169 10.588 17.7572 10.5805 17.6899L10.4946 16.9577C10.4871 16.8979 10.4386 16.8568 10.3788 16.8568H10.2331H10.1434C10.0799 16.8568 10.0276 16.8045 10.0276 16.741V6.94521C10.0276 6.88169 10.0799 6.82939 10.1434 6.82939H13.8047C14.1746 6.82939 14.4772 7.132 14.4772 7.50187V15.5044V16.2927C14.4772 16.5467 14.3016 16.7634 14.0662 16.8306C14.0625 16.8306 14.0625 16.8306 14.0587 16.8306C13.659 16.6139 13.1883 15.6874 13.1173 15.5417C13.1098 15.5305 13.1061 15.5156 13.1061 15.5044C13.0799 15.269 12.8147 12.99 11.6005 12.99C11.5668 12.99 11.5332 12.99 11.4996 12.9938C11.4996 12.9938 10.5282 13.076 11.3315 15.8443C11.3315 15.8518 11.3352 15.8555 11.3352 15.863L11.6901 18.9303C11.6901 18.934 11.6901 18.9377 11.6939 18.9452C11.7238 19.061 12.1272 20.6264 13.1696 21.736C13.1883 21.7584 13.1995 21.7846 13.1995 21.8144V22.0797C13.1995 22.0872 13.1957 22.0909 13.1883 22.0909H13.0949C12.867 22.0909 12.6802 22.2777 12.6802 22.5056V23.5853C12.6802 23.8132 12.867 24 13.0949 24H17.4921C17.72 24 17.9068 23.8132 17.9068 23.5853V22.5131C17.9068 22.2852 17.72 22.0984 17.4921 22.0984C17.4847 22.0984 17.4809 22.0946 17.4809 22.0872C17.6266 20.7347 18.1497 16.1096 18.4299 15.7472C18.4373 15.736 18.4448 15.7248 18.4485 15.7098C18.4971 15.5417 18.7399 14.5143 18.0563 13.9801ZM8.56311 16.7484C8.56311 16.8082 8.51454 16.8531 8.4585 16.8531C8.09237 16.8531 7.79349 16.5542 7.79349 16.188V7.4944C7.79349 7.12827 8.09237 6.82939 8.4585 6.82939C8.51828 6.82939 8.56311 6.87796 8.56311 6.934V16.7484Z" fill="white"/>
</svg>
